<?xml version="1.0" encoding="utf-8"?>
<!-- Generator: Adobe Illustrator 24.3.0, SVG Export Plug-In . SVG Version: 6.00 Build 0)  -->
<svg version="1.1" xmlns="http://www.w3.org/2000/svg" xmlns:xlink="http://www.w3.org/1999/xlink" x="0px" y="0px"
	 viewBox="0 0 1200 630" style="enable-background:new 0 0 1200 630;" xml:space="preserve">
<style type="text/css">
	.st0{fill:#EFEFEF;}
	.st1{clip-path:url(#SVGID_2_);}
	.st2{fill:#FF3195;}
	.st3{fill:#FFFFFF;}
	.st4{fill:#72B0E8;}
</style>
<g id="BACKGROUND">
	<rect class="st0" width="1200" height="630"/>
</g>
<g id="OBJECTS">
	<g>
		<defs>
			<rect id="SVGID_1_" x="0.01" y="0.01" width="1199.99" height="629.99"/>
		</defs>
		<clipPath id="SVGID_2_">
			<use xlink:href="#SVGID_1_"  style="overflow:visible;"/>
		</clipPath>
		<g class="st1">
			<g>
				<g>
					<g>
						<path class="st2" d="M67.41,466.12c-0.63-0.39-0.91-1.15-0.7-1.86l5.9-19.86c-7.34-6.96-11.52-16.63-11.52-26.72
							c0-20.33,16.54-36.87,36.87-36.87c20.33,0,36.86,16.54,36.86,36.87c0,20.33-16.54,36.87-36.86,36.87
							c-4.59,0-9.07-0.83-13.31-2.48l-15.25,13.88c-0.31,0.28-0.71,0.43-1.11,0.43C67.98,466.37,67.68,466.28,67.41,466.12z
							 M84.91,448.62c0.02,0.01,0.03,0.01,0.05,0.02c4.12,1.73,8.49,2.61,13,2.61c18.52,0,33.58-15.06,33.58-33.58
							c0-18.52-15.06-33.58-33.58-33.58s-33.58,15.06-33.58,33.58c0,9.58,4.14,18.74,11.36,25.13c0.64,0.57,0.74,1.53,0.22,2.22
							c-0.05,0.06-0.1,0.12-0.15,0.18l-4.26,14.35l11.57-10.53C83.56,448.54,84.27,448.36,84.91,448.62z"/>
					</g>
					<g>
						<g>
							<path class="st2" d="M116.16,420.96c-0.55,0.6-1.38,0.9-2.49,0.9c-1.11,0-1.95-0.3-2.52-0.9c-0.57-0.6-0.86-1.35-0.86-2.24
								c0-0.93,0.29-1.71,0.86-2.33c0.57-0.62,1.41-0.93,2.52-0.93c1.11,0,1.94,0.31,2.49,0.93c0.55,0.62,0.83,1.4,0.83,2.33
								C116.99,419.61,116.72,420.36,116.16,420.96z"/>
						</g>
						<g>
							<path class="st2" d="M100.47,420.96c-0.55,0.6-1.38,0.9-2.49,0.9c-1.11,0-1.95-0.3-2.52-0.9c-0.57-0.6-0.86-1.35-0.86-2.24
								c0-0.93,0.29-1.71,0.86-2.33c0.57-0.62,1.41-0.93,2.52-0.93c1.11,0,1.94,0.31,2.49,0.93c0.55,0.62,0.83,1.4,0.83,2.33
								C101.3,419.61,101.02,420.36,100.47,420.96z"/>
						</g>
						<g>
							<path class="st2" d="M84.78,420.96c-0.55,0.6-1.38,0.9-2.49,0.9c-1.11,0-1.95-0.3-2.52-0.9c-0.57-0.6-0.86-1.35-0.86-2.24
								c0-0.93,0.29-1.71,0.86-2.33c0.57-0.62,1.41-0.93,2.52-0.93c1.11,0,1.94,0.31,2.49,0.93c0.55,0.62,0.83,1.4,0.83,2.33
								C85.61,419.61,85.33,420.36,84.78,420.96z"/>
						</g>
					</g>
				</g>
				<g>
					<path class="st2" d="M129.43,573.82l-16.56-2.99c-0.91-7.07-2.86-13.94-5.81-20.49l14.82-10.29c1.24-0.86,1.55-2.56,0.69-3.8
						l-18.29-26.37c-0.86-1.24-2.56-1.55-3.8-0.69l-17.25,11.97c-3.54-2.54-7.33-4.77-11.29-6.63l3.38-18.72
						c0.27-1.49-0.72-2.91-2.2-3.18l-31.58-5.71c-1.49-0.27-2.91,0.72-3.18,2.2l-3.38,18.72c-4.23,0.35-8.42,1.08-12.52,2.16
						L9.63,491.52c-0.86-1.24-2.56-1.55-3.8-0.69l-26.37,18.29c-0.6,0.41-1,1.04-1.13,1.76c-0.13,0.71,0.03,1.45,0.44,2.04
						l11.02,15.88c-5.18,5.16-9.5,11.01-12.89,17.42l-16.56-2.99c-1.49-0.27-2.91,0.72-3.18,2.2l-5.71,31.58
						c-0.27,1.49,0.72,2.91,2.2,3.18l14.92,2.7c0.21,5.42,1.05,10.81,2.48,16.07l-12.49,8.66c-1.24,0.86-1.55,2.56-0.69,3.8
						l18.29,26.37c0.86,1.24,2.56,1.55,3.8,0.69l10.06-6.98c5.86,5.82,12.58,10.53,20.02,14.04l-2.29,12.66
						c-0.27,1.49,0.72,2.91,2.2,3.18l31.58,5.71c1.49,0.27,2.91-0.72,3.18-2.2l2.29-12.66c6.21-0.51,12.31-1.84,18.2-3.93
						l8.01,11.54c0.86,1.24,2.56,1.55,3.8,0.69l26.37-18.29c1.24-0.86,1.55-2.56,0.69-3.8L96.16,627
						c4.88-5.72,8.8-12.06,11.67-18.92l14.92,2.7c1.49,0.27,2.91-0.72,3.18-2.2l5.71-31.58
						C131.9,575.51,130.91,574.09,129.43,573.82z M121.03,604.91l-14.42-2.61c-1.29-0.23-2.57,0.49-3.04,1.71
						c-2.94,7.7-7.28,14.74-12.9,20.94c-0.85,0.94-0.94,2.35-0.22,3.39l7.59,10.95l-21.88,15.18l-7.66-11.04
						c-0.72-1.04-2.06-1.45-3.24-0.99c-6.64,2.59-13.61,4.09-20.7,4.47c-1.26,0.07-2.32,1-2.54,2.24l-2.18,12.06l-26.2-4.74
						l2.18-12.06c0.23-1.25-0.44-2.49-1.6-2.99c-8.27-3.6-15.62-8.77-21.85-15.36c-0.93-0.98-2.43-1.13-3.55-0.37l-9.71,6.74
						l-15.18-21.88l11.85-8.22c0.97-0.68,1.4-1.9,1.06-3.04c-1.84-6.1-2.8-12.39-2.85-18.72c-0.01-1.31-0.95-2.43-2.25-2.67
						l-14.43-2.61l4.74-26.21l15.87,2.87c1.2,0.22,2.4-0.39,2.94-1.49c3.56-7.25,8.39-13.75,14.36-19.32
						c0.99-0.93,1.15-2.44,0.38-3.55l-10.79-15.55l21.88-15.18l12.37,17.84c0.67,0.97,1.89,1.4,3.02,1.06
						c4.98-1.47,10.14-2.36,15.33-2.63c1.27-0.07,2.32-1,2.55-2.24l3.28-18.12l26.2,4.74l-3.28,18.12c-0.23,1.25,0.43,2.49,1.6,2.99
						c4.9,2.13,9.52,4.84,13.74,8.05c0.95,0.72,2.25,0.75,3.21,0.07l16.61-11.53l15.18,21.88l-14.48,10.04
						c-1.11,0.77-1.49,2.24-0.9,3.45c3.54,7.22,5.73,14.89,6.52,22.81c0.12,1.21,1.03,2.2,2.23,2.42l15.87,2.87L121.03,604.91z"/>
					<path class="st2" d="M47.29,545.23c-19.19-3.47-37.63,9.32-41.1,28.51c-3.47,19.19,9.32,37.63,28.51,41.1
						c19.19,3.47,37.63-9.32,41.1-28.51C79.27,567.14,66.48,548.7,47.29,545.23z M70.43,585.36c-2.93,16.23-18.52,27.04-34.75,24.11
						c-16.23-2.93-27.04-18.52-24.11-34.75c2.93-16.23,18.52-27.04,34.75-24.11C62.55,553.55,73.36,569.13,70.43,585.36z"/>
				</g>
			</g>
			<g>
				<path class="st2" d="M523.58,675.51c0,0-36.81-105.49,76.42-126.41c136.39-25.19,121.34-104.41,238.66-160.85
					c36.38-17.51,36.37-13.96,96.51-73.26c40.3-39.73,20.48-94.51,61.28-145.81c47.34-59.52,241.54,4.6,241.54,4.6v504.32
					L523.58,675.51z"/>
				<g>
					<path class="st3" d="M1141.37,543.29l-45.86,20.07c-3.02,1.32-4.4,4.85-3.08,7.87l0,0c0,0,0,0,0,0l14.58,33.3
						c0.87,1.98,2.68,3.25,4.68,3.52c0.03,0.01,0.06,0.01,0.1,0.01c1.02,0.12,2.08-0.01,3.09-0.45l45.86-20.07
						c3.02-1.32,4.4-4.85,3.08-7.87l-14.58-33.31C1147.92,543.35,1144.39,541.97,1141.37,543.29z M1162.13,583.04l-20.48-11.29
						c3.48-7.75,5.87-16.94,6.97-21.66l13.31,30.41C1162.3,581.33,1162.34,582.22,1162.13,583.04z M1096.34,565.25l45.86-20.07
						c1.88-0.82,4.06-0.04,5.02,1.74c-0.72,3.41-6.92,31.48-16.05,35.47c-3.11,1.36-7.78,0.73-12.77-0.79
						c-0.07-0.04-0.15-0.07-0.23-0.09c-0.04-0.01-0.08-0.01-0.12-0.02c-10.32-3.23-21.88-10.17-23.83-11.37
						C1093.55,568.21,1094.46,566.07,1096.34,565.25z M1095.62,573.36c4.3,2.5,12.86,7.18,21.07,9.83l-5.59,22.6
						c-0.95-0.36-1.76-1.08-2.2-2.09L1095.62,573.36z M1114.06,605.72c-0.29,0.13-0.58,0.21-0.88,0.26l5.49-22.2
						c5.12,1.45,9.95,1.96,13.33,0.48c3.37-1.48,6.32-5.63,8.78-10.66l20.34,11.21c-0.34,0.34-0.73,0.62-1.2,0.82L1114.06,605.72z"
						/>
					<g>
						<g>
							<path class="st3" d="M1162.59,360.27c-0.38,0-0.75-0.14-1.04-0.4l-14.3-13.08c-3.99,1.54-8.2,2.31-12.52,2.3
								c-19.11-0.04-34.62-15.62-34.57-34.73c0.04-19.11,15.62-34.62,34.73-34.57c19.11,0.04,34.62,15.62,34.57,34.73
								c-0.02,9.49-3.98,18.57-10.89,25.09l5.5,18.68c0.2,0.67-0.08,1.38-0.66,1.75C1163.16,360.19,1162.87,360.27,1162.59,360.27z
								 M1148.69,343.92l10.85,9.93l-3.98-13.5c-0.05-0.05-0.1-0.11-0.14-0.17c-0.48-0.64-0.39-1.55,0.21-2.08
								c6.8-5.99,10.71-14.59,10.73-23.59c0.04-17.4-14.09-31.6-31.49-31.64c-17.4-0.04-31.6,14.09-31.64,31.49
								c-0.04,17.4,14.09,31.6,31.49,31.64c4.23,0.01,8.34-0.81,12.22-2.42c0.02-0.01,0.03-0.01,0.05-0.02
								C1147.6,343.31,1148.27,343.48,1148.69,343.92z"/>
						</g>
						<g>
							<g>
								<path class="st3" d="M1116.91,315.37c0-0.87,0.26-1.6,0.78-2.19c0.52-0.58,1.3-0.87,2.34-0.87c1.04,0,1.83,0.3,2.37,0.88
									c0.54,0.59,0.8,1.32,0.8,2.19c0,0.84-0.27,1.54-0.81,2.11c-0.54,0.56-1.33,0.85-2.37,0.84c-1.04,0-1.82-0.29-2.34-0.85
									C1117.16,316.92,1116.9,316.21,1116.91,315.37z"/>
							</g>
							<g>
								<path class="st3" d="M1131.66,315.41c0-0.87,0.26-1.6,0.78-2.19c0.52-0.58,1.3-0.87,2.34-0.87c1.04,0,1.83,0.3,2.37,0.88
									c0.54,0.59,0.8,1.32,0.8,2.19c0,0.84-0.27,1.54-0.81,2.11c-0.54,0.56-1.33,0.85-2.37,0.84c-1.04,0-1.82-0.29-2.34-0.85
									C1131.91,316.95,1131.66,316.25,1131.66,315.41z"/>
							</g>
							<g>
								<path class="st3" d="M1146.41,315.44c0-0.87,0.26-1.6,0.78-2.19c0.52-0.58,1.3-0.87,2.34-0.87c1.04,0,1.83,0.3,2.37,0.88
									c0.54,0.59,0.8,1.32,0.8,2.19c0,0.84-0.27,1.54-0.81,2.11c-0.54,0.56-1.33,0.85-2.37,0.84c-1.04,0-1.82-0.29-2.34-0.85
									C1146.67,316.98,1146.41,316.28,1146.41,315.44z"/>
							</g>
						</g>
					</g>
				</g>
				<g>
					<g>
						<path class="st3" d="M673.24,611.43c-0.51,0.09-1.06-0.13-1.36-0.6l-2.29-3.58c-1.78,0.53-3.6,0.85-5.44,0.96l-0.83,3.77
							c-0.08,0.35-0.29,0.65-0.59,0.84c-0.3,0.19-0.66,0.26-1.01,0.18l-10.25-2.25c-0.72-0.16-1.18-0.87-1.02-1.6l0.83-3.78
							c-2.2-1.18-4.19-2.69-5.93-4.5l-3.06,1.96c-0.62,0.4-1.45,0.22-1.85-0.41l-5.66-8.84c-0.19-0.3-0.26-0.66-0.18-1.01
							c0.08-0.35,0.29-0.65,0.59-0.84l3.92-2.51c-0.34-1.55-0.52-3.13-0.55-4.71l-4.5-0.99c-0.35-0.08-0.65-0.29-0.84-0.59
							c-0.19-0.3-0.26-0.66-0.18-1.01l2.25-10.25c0.16-0.73,0.87-1.18,1.6-1.02l5.06,1.11c1.11-1.88,2.48-3.58,4.07-5.1l-3.21-5.01
							c-0.4-0.62-0.22-1.45,0.41-1.85l8.84-5.66c0.62-0.4,1.45-0.22,1.85,0.41l3.8,5.93c1.17-0.25,2.35-0.41,3.54-0.48l1.26-5.74
							c0.16-0.73,0.88-1.18,1.6-1.02l10.25,2.25c0.35,0.08,0.65,0.29,0.84,0.59c0.19,0.3,0.26,0.66,0.18,1.01l-1.26,5.74
							c1.09,0.59,2.14,1.25,3.12,2l5.52-3.53c0.62-0.4,1.45-0.22,1.85,0.41l5.66,8.84c0.19,0.3,0.26,0.66,0.18,1.01
							c-0.08,0.35-0.29,0.65-0.59,0.84l-4.66,2.98c0.78,2.01,1.29,4.09,1.51,6.22l5.06,1.11c0.35,0.08,0.65,0.29,0.84,0.59
							c0.19,0.3,0.26,0.66,0.18,1.01l-2.25,10.25c-0.16,0.72-0.88,1.18-1.6,1.02l-4.5-0.99c-0.97,2.02-2.22,3.89-3.73,5.57
							l2.27,3.55c0.19,0.3,0.26,0.66,0.18,1.01c-0.08,0.35-0.29,0.65-0.59,0.84l-8.84,5.66
							C673.58,611.34,673.41,611.4,673.24,611.43z M669.94,604.33c0.52-0.09,1.06,0.14,1.36,0.6l2.13,3.32l6.58-4.21l-2.11-3.29
							c-0.33-0.53-0.26-1.21,0.17-1.66c1.87-1.92,3.35-4.12,4.38-6.55c0.25-0.59,0.89-0.93,1.52-0.78l4.25,0.93l1.68-7.63
							l-4.71-1.04c-0.59-0.13-1.01-0.63-1.05-1.23c-0.16-2.54-0.77-5.03-1.81-7.38c-0.27-0.61-0.06-1.32,0.5-1.67l4.48-2.86
							l-4.21-6.58l-5.19,3.32c-0.49,0.31-1.12,0.28-1.57-0.09c-1.32-1.08-2.76-2-4.3-2.74c-0.56-0.27-0.86-0.89-0.73-1.5l1.2-5.45
							l-7.63-1.68l-1.2,5.45c-0.13,0.61-0.66,1.04-1.29,1.05c-1.66,0.03-3.33,0.25-4.94,0.66c-0.6,0.14-1.15-0.09-1.46-0.58
							l-3.58-5.6l-6.58,4.21l3.1,4.84c0.36,0.56,0.25,1.3-0.25,1.74c-1.98,1.71-3.6,3.74-4.83,6.01c-0.29,0.53-0.89,0.8-1.47,0.67
							l-4.72-1.04l-1.68,7.63l4.25,0.93c0.63,0.14,1.07,0.7,1.05,1.35c-0.06,2.02,0.17,4.05,0.69,6.03
							c0.15,0.56-0.09,1.16-0.57,1.47l-3.6,2.3l4.21,6.58l2.88-1.84c0.56-0.36,1.29-0.25,1.73,0.25c1.92,2.19,4.21,3.93,6.81,5.18
							c0.56,0.27,0.86,0.89,0.73,1.5l-0.76,3.48l7.63,1.68l0.76-3.48c0.13-0.61,0.66-1.04,1.29-1.05c2.27-0.04,4.52-0.43,6.68-1.18
							C669.8,604.36,669.87,604.34,669.94,604.33z M664.72,595.96c-1.48,0.25-3.03,0.23-4.59-0.11c-3.13-0.69-5.81-2.56-7.54-5.26
							c-1.73-2.7-2.3-5.92-1.61-9.05c0.69-3.13,2.56-5.81,5.26-7.54c2.7-1.73,5.92-2.3,9.05-1.61c6.47,1.42,10.58,7.84,9.16,14.31
							C673.36,591.61,669.4,595.16,664.72,595.96z M661.13,574.91c-1.21,0.21-2.38,0.66-3.45,1.34c-2.1,1.34-3.55,3.42-4.08,5.86
							c-0.54,2.43-0.09,4.93,1.25,7.03c1.34,2.1,3.42,3.55,5.86,4.09l0,0c5.03,1.1,10.01-2.09,11.12-7.11
							c1.1-5.03-2.09-10.01-7.11-11.12C663.51,574.74,662.3,574.71,661.13,574.91z"/>
					</g>
					<g>
						<path class="st3" d="M872.8,656.27l-17.25,2.96c-0.81,0.14-1.58-0.41-1.72-1.22l-1.18-6.91c-4.47-0.41-8.79-1.57-12.88-3.46
							l-3.86,5.45c-0.48,0.67-1.41,0.83-2.08,0.36l-14.29-10.11c-0.67-0.48-0.83-1.41-0.36-2.08l4.79-6.77
							c-1.71-2.43-3.14-5.04-4.26-7.77l-8.15,1.4c-0.81,0.14-1.58-0.41-1.72-1.22l-2.96-17.25c-0.14-0.81,0.41-1.58,1.22-1.72
							l9.05-1.55c0.54-3.92,1.67-7.72,3.36-11.33l-8.61-6.09c-0.32-0.23-0.54-0.57-0.61-0.96c-0.07-0.39,0.02-0.79,0.25-1.11
							l10.11-14.29c0.48-0.67,1.4-0.83,2.08-0.36l10.01,7.08c1.9-1.32,3.91-2.47,6.01-3.44l-1.75-10.22
							c-0.14-0.81,0.41-1.58,1.22-1.72l17.25-2.96c0.81-0.14,1.58,0.41,1.72,1.22l1.75,10.22c2.38,0.22,4.73,0.65,7.02,1.3
							l6.61-9.35c0.48-0.67,1.4-0.83,2.08-0.36l14.29,10.11c0.67,0.48,0.83,1.4,0.36,2.08l-5.68,8.03c2.73,2.8,5.01,5.96,6.8,9.42
							l9.04-1.55c0.81-0.14,1.58,0.41,1.72,1.22l2.96,17.25c0.14,0.81-0.41,1.58-1.22,1.72l-8.15,1.4
							c-0.2,4.05-1.02,8.03-2.46,11.87l6.2,4.38c0.67,0.48,0.83,1.4,0.36,2.08l-10.11,14.29c-0.48,0.67-1.4,0.83-2.08,0.36
							l-6.25-4.42c-2.63,2.17-5.51,3.99-8.59,5.41l1.18,6.91C874.16,655.36,873.61,656.13,872.8,656.27z M856.52,656.04l14.31-2.45
							L869.7,647c-0.12-0.68,0.25-1.35,0.89-1.62c3.56-1.51,6.85-3.58,9.78-6.15c0.52-0.46,1.28-0.5,1.84-0.1l5.98,4.23l8.39-11.86
							l-5.93-4.2c-0.56-0.4-0.78-1.14-0.52-1.78c1.72-4.22,2.64-8.64,2.71-13.13c0.01-0.72,0.53-1.32,1.24-1.45l7.88-1.35
							l-2.45-14.31l-8.67,1.48c-0.66,0.11-1.31-0.22-1.59-0.82c-1.88-3.91-4.43-7.44-7.59-10.48c-0.53-0.51-0.61-1.33-0.18-1.93
							l5.55-7.84l-11.86-8.39l-6.37,9c-0.37,0.53-1.04,0.75-1.66,0.56c-2.76-0.86-5.64-1.39-8.54-1.57
							c-0.69-0.04-1.26-0.55-1.38-1.24l-1.7-9.9l-14.31,2.45l1.7,9.9c0.12,0.68-0.25,1.35-0.89,1.62c-2.61,1.11-5.09,2.52-7.37,4.2
							c-0.52,0.38-1.22,0.39-1.75,0.02l-9.66-6.84l-8.39,11.86l8.43,5.96c0.6,0.43,0.8,1.23,0.47,1.89
							c-2.02,3.97-3.28,8.2-3.76,12.58c-0.07,0.66-0.57,1.2-1.23,1.31l-8.67,1.49l2.45,14.31l7.88-1.35
							c0.71-0.12,1.4,0.28,1.65,0.95c1.2,3.23,2.87,6.28,4.95,9.06c0.39,0.52,0.4,1.23,0.02,1.75l-4.54,6.42l11.86,8.39l3.72-5.26
							c0.43-0.6,1.23-0.8,1.89-0.47c4.42,2.22,9.15,3.5,14.06,3.8c0.69,0.04,1.26,0.55,1.38,1.24L856.52,656.04z M859.55,630.77
							c-10.48,1.8-20.47-5.27-22.27-15.75c-1.8-10.48,5.27-20.47,15.75-22.27c10.48-1.8,20.47,5.27,22.27,15.75
							C877.1,618.98,870.04,628.97,859.55,630.77z M853.54,595.68c-8.86,1.52-14.84,9.96-13.32,18.83
							c1.52,8.86,9.96,14.84,18.83,13.32c8.86-1.52,14.84-9.97,13.32-18.83C870.85,600.14,862.41,594.16,853.54,595.68z"/>
					</g>
				</g>
			</g>
			<g>
				<g>
					<rect x="352.4" y="547.66" class="st4" width="28.82" height="146.28"/>
					<polygon class="st4" points="341.37,553.34 367.51,528.38 392.26,553.34 					"/>
				</g>
				<g>
					<rect x="425.28" y="583.75" class="st4" width="28.82" height="104.07"/>
					<polygon class="st4" points="414.25,589.44 440.38,564.48 465.14,589.44 					"/>
				</g>
				<g>
					<rect x="278.79" y="583.75" class="st4" width="28.82" height="104.07"/>
					<polygon class="st4" points="267.76,589.44 293.9,564.48 318.65,589.44 					"/>
				</g>
			</g>
		</g>
	</g>
</g>
<g id="TEXTS">
</g>
</svg>
